<?xml version="1.0" encoding="utf-8" ?>
<!-- Generator: Adobe Illustrator 25.0.1, SVG Export Plug-In . SVG Version: 6.00 Build 0)  -->
<svg
  version="1.1"
  id="Layer_1"
  xmlns="http://www.w3.org/2000/svg"
  xmlns:xlink="http://www.w3.org/1999/xlink"
  x="0px"
  y="0px"
  viewBox="0 0 1067.5 951.8"
  style="enable-background:new 0 0 1067.5 951.8;"
  xml:space="preserve"
>
<style type="text/css">
.st0 {
  fill: #ffffff;
}
.st1 {
  fill: #ffffff;
  stroke: #ffffff;
  stroke-miterlimit: 10;
}
.st2 {
  fill-opacity: 0;
  stroke: #fa023c;
  stroke-width: 41.32;
  stroke-miterlimit: 4.35;
}
  </style>
  <rect x="0" y="0" width="1067.5" height="951.8" fill="#3737b4" />
<g id="Layer_5">
	<path
      class="st0"
      d="M509.2,500.4c0,0-26.7-2.5-76.5,0.1l-28.5-160.7l-40.7,54.6l-71.3-39.9L336.5,517
		c-20.7,11.5-11.5,5.1-43.9,21.3c-25.9-48.9-104.5-176.5-129.8-225.9c32.8-20.3,43.5-25.9,84.9-45l100.5,58.5l55.7-92.9l43.7-6.6
		L509.2,500.4z"
    />
</g>
<g id="Layer_9">
	<path
      class="st1"
      d="M978.6,483c0,0,66.9-30.5,72.9-34.7c-44.5-94.2-64.2-137.2-64.2-137.2l57.5-41.6l-12.5-68.7
		c0,0-44.4,34.8-69,57.7L934.2,184c0,0,53.9-42,94.3-73l-6.5-97.7c0,0-12.4,25.2-160.3,142.1"
    />
</g>
<g id="Layer_11">
	<path
      class="st0"
      d="M676.8,206.1l-20.5,63.7L676.8,206.1c129.6-23,170.4-43.6,170.4-43.6l21.4,56.8L790.8,245
		c0,0,25.2,77.3,98.7,265.2c0,0-41.5,8.6-73.7,12.5c0,0-67.7-189.5-89.1-263c0,0,0,0-70.5,10.2"
    />
</g>
<g id="Layer_14">
	<path
      class="st0"
      d="M744.3,457.9c0,0-182.2,64.2-195.8-100c-6-82,90.7-85.7,90.7-85.7l20.3-64.5c0,0-107.9,12.4-191.5,17.9
		c15.7,77.7,58.1,272.8,58.1,272.8c78.1,8.9,174.9,20.3,261.9,25.8L744.3,457.9z"
    />
</g>
<g id="Layer_3_1_">
	<path class="st0" d="M82.5,328.7l44.7-26l296.5,506l-50.6,26.8L82.5,328.7z" />
</g>
<g id="Layer_3">
	<circle class="st2" cx="423.7" cy="861.8" r="53.1" />
	<circle class="st2" cx="76.5" cy="264.8" r="53.1" />
</g>
</svg>
